<svg xmlns="http://www.w3.org/2000/svg">
<g>
  <path
    d="M21.5 10.8993C15.162 10.8993 10 16.0613 10 22.3993C10 28.7374 15.162 33.8993 21.5 33.8993H27.25V31.5993H21.5C16.4047 31.5993 12.3 27.4946 12.3 22.3993C12.3 17.3041 16.4047 13.1993 21.5 13.1993C26.5953 13.1993 30.7 17.3041 30.7 22.3993V24.1243C30.7 25.0913 29.9419 25.8493 28.975 25.8493C28.0081 25.8493 27.25 25.0913 27.25 24.1243V22.3993C27.25 19.2373 24.662 16.6493 21.5 16.6493C18.338 16.6493 15.75 19.2373 15.75 22.3993C15.75 25.5613 18.338 28.1493 21.5 28.1493C23.1256 28.1493 24.591 27.458 25.6396 26.3637C26.3653 27.4373 27.5924 28.1493 28.975 28.1493C31.1844 28.1493 33 26.3337 33 24.1243V22.3993C33 16.0613 27.838 10.8993 21.5 10.8993ZM21.5 18.9493C23.419 18.9493 24.95 20.4803 24.95 22.3993C24.95 24.3183 23.419 25.8493 21.5 25.8493C19.581 25.8493 18.05 24.3183 18.05 22.3993C18.05 20.4803 19.581 18.9493 21.5 18.9493Z"
  />
</g>
</svg>
