<svg id="eUZtzL85XET1" xmlns="http://www.w3.org/2000/svg" xmlns:xlink="http://www.w3.org/1999/xlink" viewBox="0 0 10 10" shape-rendering="geometricPrecision" text-rendering="geometricPrecision"><g transform="matrix(.54 0 0 0.55 3.458201 5.39017)"><path d="M4.28972,21.9983c.31546-1.2341.61909-2.4225.92329-3.6103.37461-1.4626.74753-2.9257,1.12947-4.3866.04056-.1547.00619-.2407-.1121-.3407-2.02009-1.6982-4.03623-3.4004-6.052933-5.10195C0.127875,8.51687,0.082246,8.47108,0,8.39513c.362781-.02681.680497-.05305.998775-.07316C3.16758,8.1818,5.33694,8.04275,7.50574,7.90314c.19435-.01229.38926-.04077.58305-.0363.18308.00391.27377-.06087.34306-.23455.97286-2.44823,1.95365-4.89311,2.93325-7.338547.0332-.08265.0693-.164183.1245-.293743.0462.105546.0788.173677.107.243483.9864,2.458837,1.9745,4.917117,2.953,7.378757.0726.18261.1667.2351.3577.24627c1.7356.10499,3.4701.22282,5.2051.33619.7853.05137,1.5705.10052,2.3558.15134.1566.01005.3132.02233.4693.03406.0208.02513.0417.0497.0625.07483-.0575.02737-.1234.04468-.1707.08433-2.0082,1.68874-4.0137,3.38084-6.0247,5.06624-.155.1295-.2062.2379-.1516.4479.6676,2.5627,1.3216,5.1282,1.979,7.6937.0163.0642.0287.129.0529.2362-.1025-.0609-.1757-.1022-.2467-.1469-2.2477-1.4117-4.4965-2.8218-6.7402-4.2397-.1594-.1005-.2642-.0916-.4169.005-2.23861,1.4123-4.48064,2.8185-6.72267,4.2258-.07549.0475-.15266.0927-.26815.1625l-.00056-.0017Z" transform="matrix(.685631 0 0 0.753975-5.029574-9.003125)" fill="#00b090"/></g></svg>
